<svg xmlns="http://www.w3.org/2000/svg" enable-background="new 0 0 49 49" viewBox="0 0 49 49" id="ObjectDatabase"><path d="M21 34c0-.9-.7-1.6-1.6-1.6H4c-.9 0-1.6.7-1.6 1.6v8.4H21V34zM28 34v8.4h18.6V34c0-.9-.7-1.6-1.6-1.6H29.6C28.7 32.4 28 33.1 28 34zM21.2 43.8h-19c-.4 0-.7.2-1 .5C1 44.7.9 45 1 45.4l.5 2.3c0 0 0 .1 0 .1.2.5.6.7 1.1.7h18c.5 0 .9-.3 1.1-.7 0 0 0-.1 0-.1l.5-2.3c.1-.3 0-.7-.1-1C21.9 44 21.6 43.8 21.2 43.8zM47.8 44.4c-.2-.3-.6-.5-1-.5h-19c-.4 0-.7.2-1 .5-.2.3-.3.7-.1 1l.5 2.3c0 0 0 .1 0 .1.2.5.6.7 1.1.7h18c.5 0 .9-.3 1.1-.7 0 0 0-.1 0-.1l.5-2.3C48.1 45 48 44.7 47.8 44.4zM9.5 10.5h.7v1.6h28.7v-1.6h.7c1.2 0 2.2-1 2.2-2.2V2.7c0-1.2-1-2.2-2.2-2.2H9.5c-1.2 0-2.2 1-2.2 2.2v5.7C7.3 9.5 8.2 10.5 9.5 10.5zM36.6 3.2c1.3 0 2.3 1 2.3 2.3s-1 2.3-2.3 2.3c-1.3 0-2.3-1-2.3-2.3S35.3 3.2 36.6 3.2zM30.8 3.2c1.3 0 2.3 1 2.3 2.3s-1 2.3-2.3 2.3c-1.3 0-2.3-1-2.3-2.3S29.6 3.2 30.8 3.2zM25.2 3.4h.9c.4 0 .7.3.7.7 0 .4-.3.7-.7.7h-.9c-.4 0-.7-.3-.7-.7C24.5 3.7 24.8 3.4 25.2 3.4zM25.2 6.2h.9c.4 0 .7.3.7.7 0 .4-.3.7-.7.7h-.9c-.4 0-.7-.3-.7-.7C24.5 6.6 24.8 6.2 25.2 6.2zM21.6 3.4h1c.4 0 .7.3.7.7 0 .4-.3.7-.7.7h-1c-.4 0-.7-.3-.7-.7C20.9 3.7 21.2 3.4 21.6 3.4zM21.6 6.2h1c.4 0 .7.3.7.7 0 .4-.3.7-.7.7h-1c-.4 0-.7-.3-.7-.7C20.9 6.6 21.2 6.2 21.6 6.2zM18.1 3.4h1c.4 0 .7.3.7.7 0 .4-.3.7-.7.7h-1c-.4 0-.7-.3-.7-.7C17.3 3.7 17.6 3.4 18.1 3.4zM18.1 6.2h1c.4 0 .7.3.7.7 0 .4-.3.7-.7.7h-1c-.4 0-.7-.3-.7-.7C17.3 6.6 17.6 6.2 18.1 6.2zM14.5 3.4h1c.4 0 .7.3.7.7 0 .4-.3.7-.7.7h-1c-.4 0-.7-.3-.7-.7C13.7 3.7 14.1 3.4 14.5 3.4zM14.5 6.2h1c.4 0 .7.3.7.7 0 .4-.3.7-.7.7h-1c-.4 0-.7-.3-.7-.7C13.7 6.6 14.1 6.2 14.5 6.2zM10.9 3.4h1c.4 0 .7.3.7.7 0 .4-.3.7-.7.7h-1c-.4 0-.7-.3-.7-.7C10.1 3.7 10.5 3.4 10.9 3.4zM10.9 6.2h1c.4 0 .7.3.7.7 0 .4-.3.7-.7.7h-1c-.4 0-.7-.3-.7-.7C10.1 6.6 10.5 6.2 10.9 6.2z" fill="#e8e8e8" class="color000000 svgShape"></path><path d="M30.8 6.3c.5 0 .8-.4.8-.8 0-.4-.4-.8-.8-.8-.4 0-.8.4-.8.8C30 6 30.4 6.3 30.8 6.3zM36.6 6.3c.4 0 .8-.4.8-.8 0-.4-.4-.8-.8-.8-.4 0-.8.4-.8.8C35.8 6 36.1 6.3 36.6 6.3zM9.5 23.6h14.3v2.3H11.7c-.4 0-.7.3-.7.7v4.3h1.5v-3.5h24.2v3.5h1.5v-4.3c0-.4-.3-.7-.7-.7H25.2v-2.3h14.3c1.2 0 2.2-1 2.2-2.2v-5.7c0-1.2-1-2.2-2.2-2.2H9.5c-1.2 0-2.2 1-2.2 2.2v5.7C7.3 22.6 8.2 23.6 9.5 23.6zM36.6 16.3c1.3 0 2.3 1 2.3 2.3 0 1.3-1 2.3-2.3 2.3-1.3 0-2.3-1-2.3-2.3C34.3 17.3 35.3 16.3 36.6 16.3zM30.8 16.3c1.3 0 2.3 1 2.3 2.3 0 1.3-1 2.3-2.3 2.3-1.3 0-2.3-1-2.3-2.3C28.5 17.3 29.6 16.3 30.8 16.3zM25.2 16.4h.9c.4 0 .7.3.7.7 0 .4-.3.7-.7.7h-.9c-.4 0-.7-.3-.7-.7C24.5 16.8 24.8 16.4 25.2 16.4zM25.2 19.3h.9c.4 0 .7.3.7.7 0 .4-.3.7-.7.7h-.9c-.4 0-.7-.3-.7-.7C24.5 19.6 24.8 19.3 25.2 19.3zM21.6 16.4h1c.4 0 .7.3.7.7 0 .4-.3.7-.7.7h-1c-.4 0-.7-.3-.7-.7C20.9 16.8 21.2 16.4 21.6 16.4zM21.6 19.3h1c.4 0 .7.3.7.7 0 .4-.3.7-.7.7h-1c-.4 0-.7-.3-.7-.7C20.9 19.6 21.2 19.3 21.6 19.3zM18.1 16.4h1c.4 0 .7.3.7.7 0 .4-.3.7-.7.7h-1c-.4 0-.7-.3-.7-.7C17.3 16.8 17.6 16.4 18.1 16.4zM18.1 19.3h1c.4 0 .7.3.7.7 0 .4-.3.7-.7.7h-1c-.4 0-.7-.3-.7-.7C17.3 19.6 17.6 19.3 18.1 19.3zM14.5 16.4h1c.4 0 .7.3.7.7 0 .4-.3.7-.7.7h-1c-.4 0-.7-.3-.7-.7C13.7 16.8 14.1 16.4 14.5 16.4zM14.5 19.3h1c.4 0 .7.3.7.7 0 .4-.3.7-.7.7h-1c-.4 0-.7-.3-.7-.7C13.7 19.6 14.1 19.3 14.5 19.3zM10.9 16.4h1c.4 0 .7.3.7.7 0 .4-.3.7-.7.7h-1c-.4 0-.7-.3-.7-.7C10.1 16.8 10.5 16.4 10.9 16.4zM10.9 19.3h1c.4 0 .7.3.7.7 0 .4-.3.7-.7.7h-1c-.4 0-.7-.3-.7-.7C10.1 19.6 10.5 19.3 10.9 19.3z" fill="#e8e8e8" class="color000000 svgShape"></path><path d="M36.6 19.4c.4 0 .8-.4.8-.8 0-.5-.4-.8-.8-.8-.4 0-.8.4-.8.8C35.8 19 36.1 19.4 36.6 19.4zM30.8 19.4c.5 0 .8-.4.8-.8 0-.5-.4-.8-.8-.8-.4 0-.8.4-.8.8C30 19 30.4 19.4 30.8 19.4z" fill="#e8e8e8" class="color000000 svgShape"></path></svg>