<svg xmlns="http://www.w3.org/2000/svg" viewBox="0 0 24 24" id="twilio"><path fill="#EB2E45" d="M0 12c0 6.64 5.359 12 12 12s12-5.36 12-12c0-6.641-5.36-12-12-12C5.381-.008.008 5.352 0 11.971V12zm3.199 0a8.777 8.777 0 0 1 8.75-8.801H12a8.776 8.776 0 0 1 8.801 8.75V12c.015 4.847-3.904 8.786-8.75 8.801H12c-4.846.015-8.786-3.904-8.801-8.75V12z"></path><path fill="#EB2E45" d="M14.959 17.44a2.493 2.493 0 0 0 2.481-2.48c0-1.359-1.12-2.48-2.481-2.479a2.492 2.492 0 0 0-2.479 2.479 2.492 2.492 0 0 0 2.479 2.48zm0-5.92a2.492 2.492 0 0 0 2.481-2.479 2.493 2.493 0 0 0-2.481-2.481 2.492 2.492 0 0 0-2.479 2.481 2.492 2.492 0 0 0 2.479 2.479zm-5.917 5.92a2.492 2.492 0 0 0 2.479-2.48 2.492 2.492 0 0 0-2.479-2.479 2.492 2.492 0 0 0-2.481 2.479 2.492 2.492 0 0 0 2.481 2.48zm0-5.92a2.492 2.492 0 0 0 2.479-2.479A2.493 2.493 0 0 0 9.042 6.56a2.493 2.493 0 0 0-2.481 2.481 2.492 2.492 0 0 0 2.481 2.479z"></path></svg>